<?xml version="1.0" encoding="UTF-8"?>
<svg width="220px" height="36px" viewBox="0 0 220 36" version="1.1" xmlns="http://www.w3.org/2000/svg" xmlns:xlink="http://www.w3.org/1999/xlink">
    <!-- Generator: Sketch 55.1 (78136) - https://sketchapp.com -->
    <title>Logo</title>
    <desc>Created with Sketch.</desc>
    <defs>
        <polygon id="path-1" points="0.12954285 0.249468213 15.7814741 0.249468213 15.7814741 20.8080181 0.12954285 20.8080181"></polygon>
    </defs>
    <g id="Escritorio" stroke="none" stroke-width="1" fill="none" fill-rule="evenodd">
        <g id="01-home" transform="translate(-190.000000, -25.000000)">
            <g id="Menu">
                <g id="Logo" transform="translate(190.000000, 25.000000)">
                    <polygon id="Fill-1" fill="#FFDD18" points="10.1372411 -0.000117286419 12.4730001 5.23378915 25.1997494 5.23378915 25.1997494 23.7544875 15.2169159 29.2839558 8.76616287 25.7114114 0.000175929628 25.7114114 0.000175929628 26.8391204 15.2169159 35.266736 30.4330694 26.8391204 30.4330694 -0.000117286419"></polygon>
                    <polygon id="Fill-2" fill="#282823" points="0 -0.000117286419 0 23.7726669 5.23332001 23.7726669 5.23332001 7.09747035 12.6446488 23.7726669 18.3723311 23.7726669 7.80658403 -0.000117286419"></polygon>
                    <g id="Group-26" transform="translate(41.636679, 3.599403)">
                        <path d="M29.5265041,9.44830068 C28.9130961,10.2857257 28.080949,10.7038518 27.0294762,10.7038518 L24.4309956,10.7038518 L25.9785899,4.04608823 L28.2269705,4.04608823 C29.0450433,4.04608823 29.6185739,4.23081434 29.9504945,4.60085299 C30.2806557,4.97089164 30.4460296,5.66170865 30.4460296,6.67389044 C30.4460296,7.68665867 30.139912,8.61146208 29.5265041,9.44830068 M33.1043263,1.92848194 C32.1109103,1.04296948 30.563316,0.599626816 28.460957,0.599626816 L22.7373797,0.599626816 L18.1520672,20.4573904 L22.182615,20.4573904 L23.6422444,14.1497268 L26.4166547,14.1497268 L27.7302626,20.4573904 L31.7608103,20.4573904 L30.1545728,13.594962 C31.4394456,13.0888711 32.5003012,12.1933893 33.3377262,10.9085166 C34.1745648,9.62364388 34.5932774,8.02737572 34.5932774,6.11912568 C34.5932774,4.21146208 34.0965694,2.81458083 33.1043263,1.92848194" id="Fill-3" fill="#282823"></path>
                        <polygon id="Fill-5" fill="#282823" points="46.6945382 12.280885 47.512611 8.77636679 41.4964041 8.77636679 42.5771985 4.1042623 50.1697348 4.1042623 50.9872211 0.599744102 39.3354018 0.599744102 34.7799973 20.4575077 46.4611382 20.4575077 47.2493029 16.9529895 39.627445 16.9529895 40.7082394 12.280885"></polygon>
                        <path d="M60.1097001,4.10402772 L59.700957,13.5074663 L55.291574,13.5074663 L59.4962921,4.10402772 L60.1097001,4.10402772 Z M48.1957457,20.4572731 L52.2257071,20.4572731 L53.7727149,17.0113981 L59.5549354,17.0113981 L59.4382354,20.4572731 L63.4681967,20.4572731 L64.0810183,0.600095962 L57.1312115,0.600095962 L48.1957457,20.4572731 Z" id="Fill-7" fill="#282823"></path>
                        <path d="M86.9092363,13.711662 C86.6171931,15.0358257 86.2178329,15.9653205 85.711742,16.500733 C85.2056511,17.0361455 84.4514994,17.3035586 83.4487005,17.3035586 C82.4459016,17.3035586 81.7445289,17.1868586 81.3463415,16.9534586 C80.9469812,16.7194722 80.7475943,16.3060376 80.7475943,15.7119819 C80.7475943,15.1185126 80.8355591,14.4517393 81.0103159,13.711662 L84.0474477,0.599626816 L80.0174863,0.599626816 L77.1263761,13.0695189 C76.8730375,14.2183393 76.7469546,15.2985472 76.7469546,16.310729 C76.7469546,19.3091563 78.8686659,20.8080768 83.1126749,20.8080768 C85.2156204,20.8080768 86.9039584,20.2486206 88.1794482,19.1291217 C89.4543516,18.0096228 90.3744635,16.2039984 90.9391977,13.711662 L93.9763295,0.599626816 L89.9463681,0.599626816 L86.9092363,13.711662 Z" id="Fill-9" fill="#282823"></path>
                        <path d="M107.818003,0.541394109 C106.805235,0.347285086 105.705089,0.249350926 104.51815,0.249350926 C103.330625,0.249350926 102.152483,0.502689591 100.98431,1.00878049 C98.7846035,1.98225776 97.0904012,3.75386912 95.9034626,6.32361455 C94.8126989,8.65996002 94.2679035,11.4044622 94.2679035,14.5588804 C94.2679035,18.724894 96.4582274,20.8079008 100.838875,20.8079008 C103.291334,20.8079008 105.179645,20.5545622 106.503809,20.0484713 L108.98559,9.41880315 L103.115991,9.41880315 L102.327826,12.7479781 L104.196785,12.7479781 L103.174634,17.1573611 L101.33441,17.3033826 C99.3880421,17.3033826 98.4145648,16.3985179 98.4145648,14.5876156 C98.4145648,12.0958657 98.8819512,9.73019859 99.8161375,7.49178729 C100.263585,6.38167133 100.901037,5.48149807 101.729079,4.79009463 C102.555948,4.09927762 103.495999,3.75386912 104.547472,3.75386912 C106.26044,3.75386912 108.080725,3.94856457 110.007741,4.33795548 L110.942514,1.41752366 L110.153762,1.12548047 C109.608967,0.931371451 108.830185,0.736089564 107.818003,0.541394109" id="Fill-11" fill="#282823"></path>
                        <path d="M122.754898,12.1641263 C122.200133,14.0137332 121.464747,15.3959536 120.549913,16.3107877 C119.887832,16.9728695 119.055098,17.3036172 118.052886,17.3036172 C117.050087,17.3036172 116.339917,17.0749087 115.921791,16.6174917 C115.502492,16.1600746 115.293136,15.2552099 115.293136,13.9017246 C115.293136,12.5488258 115.575796,10.9038838 116.14053,8.96631214 C116.705265,7.02932694 117.473491,5.58377182 118.446968,4.62964681 C119.031054,4.04556044 119.829775,3.75351726 120.841957,3.75351726 C121.854138,3.75351726 122.564894,3.98281221 122.973637,4.44022924 C123.38238,4.89764627 123.587045,5.66176729 123.587045,6.7325923 C123.587045,8.50420365 123.309663,10.3145195 122.754898,12.1641263 M121.280021,0.249585499 C119.079728,0.249585499 117.230708,0.897006531 115.731201,2.19126216 C114.23228,3.48669066 113.092843,5.26240704 112.314647,7.52075703 C111.535866,9.77969346 111.146475,12.1834786 111.146475,14.7338718 C111.146475,18.7831854 113.297508,20.8081354 117.600746,20.8081354 C119.703105,20.8081354 121.518113,20.2146661 123.046941,19.0265547 C124.575183,17.8390297 125.738078,16.0920485 126.536212,13.7850247 C127.334933,11.4780008 127.733707,8.99094229 127.733707,6.32384913 C127.733707,2.27453552 125.582087,0.249585499 121.280021,0.249585499" id="Fill-13" fill="#282823"></path>
                        <polygon id="Fill-15" fill="#282823" points="144.259304 0.599802746 140.726051 16.1648834 140.375365 16.1648834 139.323892 0.599802746 132.92885 0.599802746 128.343537 20.4575663 132.140099 20.4575663 135.848695 4.60044249 136.199382 4.60044249 137.484254 20.4575663 143.558518 20.4575663 148.143244 0.599802746"></polygon>
                        <polygon id="Fill-17" fill="#282823" points="159.581543 12.280885 160.39903 8.77636679 154.383409 8.77636679 155.464204 4.1042623 163.05674 4.1042623 163.87364 0.599744102 152.221821 0.599744102 147.667003 20.4575077 159.348143 20.4575077 160.135722 16.9529895 152.513864 16.9529895 153.594658 12.280885"></polygon>
                        <g id="Group-21" transform="translate(161.855258, 0.000000)">
                            <mask id="mask-2" fill="white">
                                <use xlink:href="#path-1"></use>
                            </mask>
                            <g id="Clip-20"></g>
                            <path d="M9.79511662,3.6953432 C11.1573984,3.6953432 12.9102439,3.87068639 15.0518939,4.22078635 L15.7820019,1.35899773 L14.9639291,1.06695455 C14.4191337,0.891611355 13.6356604,0.712163135 12.6135093,0.526850593 C11.5913581,0.342124484 10.6131894,0.249468213 9.67841663,0.249468213 C7.63411435,0.249468213 5.99855524,0.862876183 4.77291217,2.08910569 C3.54609623,3.31592163 2.93268826,4.87348527 2.93268826,6.76121018 C2.93268826,8.0460829 3.21417566,9.04946821 3.7794962,9.76960682 C4.34364388,10.4897454 5.28779955,11.1518273 6.61196321,11.7552659 C7.93554045,12.3587045 8.76827402,12.8114301 9.10899107,13.1128562 C9.44912168,13.4148687 9.61977342,13.848242 9.61977342,14.4123897 C9.61977342,15.4638625 9.32773024,16.2086312 8.74423031,16.646696 C8.16014394,17.0847608 7.24003199,17.3034999 5.98448087,17.3034999 C4.72834333,17.3034999 3.00071438,17.1093909 0.801007597,16.7194136 L0.12954285,19.6105238 L0.947029188,19.9318886 C1.51117686,20.126584 2.29992803,20.3212795 3.31210982,20.5159749 C4.32429162,20.710084 5.28779955,20.8080181 6.20322005,20.8080181 C8.50027456,20.8080181 10.3252512,20.2145488 11.6787365,19.0264374 C13.0322218,17.8394989 13.708378,16.1452965 13.708378,13.9455898 C13.708378,12.6214261 13.4497614,11.6139358 12.9348741,10.9231188 C12.4188138,10.2323017 11.4599973,9.57491137 10.0578382,8.95153405 C8.65685193,8.32874317 7.7994882,7.86663468 7.48809276,7.56462215 C7.17669732,7.26319605 7.02129282,6.78114887 7.02129282,6.11906704 C7.02129282,5.45757164 7.26876716,4.88814607 7.76547514,4.41079035 C8.26218313,3.93402106 8.93833933,3.6953432 9.79511662,3.6953432" id="Fill-19" fill="#282823" mask="url(#mask-2)"></path>
                        </g>
                        <path d="M12.3263921,4.10402772 L11.9176489,13.5074663 L7.50767959,13.5074663 L11.7129841,4.10402772 L12.3263921,4.10402772 Z M10.7782114,0.591885912 L7.25551379,0.591885912 L5.72903105,3.95800613 L7.836668,3.95800613 L0.411851259,20.4572731 L4.44181261,20.4572731 L5.9894069,17.0113981 L11.7716273,17.0113981 L11.6543409,20.4572731 L15.6848887,20.4572731 L16.2977102,0.600095962 L10.7782114,0.600095962 L10.7782114,0.591885912 Z" id="Fill-22" fill="#282823"></path>
                        <path d="M73.3422471,0.592120485 L69.8189631,0.592120485 L68.2930668,3.9582407 L71.3431001,3.9582407 L67.6990111,19.5069012 C67.4456724,20.5976649 67.1729815,21.2691297 66.8809383,21.5218819 C66.5894815,21.7752206 66.0347168,21.9212422 65.2172304,21.9599467 L64.5451793,25.4644649 C66.4528429,25.4644649 67.9036759,25.2791523 68.8965054,24.9097001 C69.4219486,24.7150047 69.8400746,24.3737012 70.1526429,23.887549 C70.7554951,22.9340104 71.2809383,21.4737945 71.7289724,19.5069012 L76.1600533,0.599744102 L73.3422471,0.599744102 L73.3422471,0.592120485 Z" id="Fill-24" fill="#282823"></path>
                    </g>
                </g>
            </g>
        </g>
    </g>
</svg>